<svg width="367" height="113" viewBox="0 0 367 113" fill="none" xmlns="http://www.w3.org/2000/svg">
<path fill-rule="evenodd" clip-rule="evenodd" d="M43.5229 113H43.5265C44.1341 113 44.6991 112.689 45.026 112.176L58.4279 91.0822C58.8917 90.3502 58.7602 89.389 58.1152 88.8098L47.7533 79.489C47.382 79.155 46.9005 78.9897 46.3888 79.043C45.8931 79.091 45.4418 79.3469 45.1433 79.7466L33.0668 95.851C32.6262 96.4408 32.5907 97.2421 32.9869 97.8675L42.0233 112.174C42.3485 112.687 42.9153 113 43.5229 113ZM31.4394 27.7168C16.0066 27.7168 9.87158 34.1983 7.43923 39.6369C3.67078 48.0657 6.68944 59.2058 10.513 63.4806C11.1615 64.2056 12.2755 64.2713 13.0075 63.6334L21.8947 55.8656C22.5024 55.3361 22.6747 54.4655 22.3212 53.7424C21.3777 51.8306 19.3931 46.1202 21.4914 42.6982C22.7884 40.5857 25.5726 39.477 29.7639 39.3988C30.4444 39.5125 34.1258 40.2481 35.2256 42.8208C36.1353 44.9529 35.1172 48.1474 32.2797 52.0634L0.517075 84.0446C-0.0585876 84.6238 -0.166968 85.5246 0.259448 86.2246L14.1055 108.853C14.4413 109.402 15.0259 109.704 15.6229 109.704C15.7348 109.704 15.8414 109.693 15.9498 109.672C16.5912 109.793 17.2788 109.553 17.6981 108.993C18.7393 107.608 43.3044 74.9193 50.1306 62.6509C53.1724 57.1874 55.3862 45.2158 50.4842 36.8758C48.0269 32.6987 42.7269 27.7168 31.4394 27.7168Z" fill="#F65275"/>
<path fill-rule="evenodd" clip-rule="evenodd" d="M49.6004 12.6944C49.6004 11.2418 50.7665 10.0757 52.2191 10.0757C53.6614 10.0757 54.848 11.2623 54.848 12.7046C54.848 14.1572 53.6818 15.3233 52.2293 15.3233C52.0349 15.3233 51.8406 15.3028 51.6667 15.2619C49.5944 19.3988 47.7024 23.6483 45.9447 27.9896C42.5482 25.8052 37.7817 24.2143 31.1032 24.2143C22.6795 24.2143 16.7826 25.9758 12.6555 28.4806C12.0213 27.065 11.3893 25.6567 10.7501 24.2533C10.1655 22.9883 9.57643 21.7256 8.98498 20.4577C8.3138 19.019 7.63954 17.5736 6.96529 16.1109C6.65841 16.2337 6.33108 16.3053 5.98329 16.3053C4.54098 16.3053 3.36462 15.1391 3.36462 13.6866C3.36462 12.2341 4.54098 11.0679 5.98329 11.0679C7.43583 11.0679 8.61218 12.2341 8.61218 13.6866C8.61218 14.1265 8.49966 14.5561 8.30531 14.9141C8.35645 14.955 8.41783 14.9959 8.46897 15.0266C8.69457 15.1462 8.9198 15.2661 9.14495 15.3859C10.1142 15.902 11.0818 16.4171 12.0696 16.8986C12.4686 17.0929 12.9698 17.2361 13.4199 17.2464C14.9849 17.277 15.8135 16.6224 16.1511 15.4972C16.55 14.1674 16.5091 12.8274 16.3863 11.4669C16.3352 11.4771 16.2738 11.4771 16.2227 11.4771C14.7701 11.4771 13.604 10.311 13.604 8.85845C13.604 7.40591 14.7701 6.23978 16.2227 6.23978C17.6752 6.23978 18.8413 7.40591 18.8413 8.85845C18.8413 9.57449 18.5549 10.2394 18.0844 10.7099C18.1355 10.8838 18.2378 11.0475 18.3503 11.2214C19.2607 12.5921 20.5803 13.5434 22.1147 14.2492C23.1478 14.7198 24.2219 14.5152 24.8765 13.615C25.5312 12.6944 26.0733 11.6715 26.5439 10.6383C27.3008 8.95051 27.6077 7.16041 27.8941 5.37031C27.9044 5.26801 27.9044 5.18618 27.8941 5.10435C26.861 4.74633 26.1143 3.76433 26.1143 2.61866C26.1143 1.17635 27.2906 0 28.7329 0C30.1855 0 31.3618 1.17635 31.3618 2.61866C31.3618 3.74387 30.6662 4.67472 29.6842 5.06343C29.7982 5.39994 29.9118 5.73766 30.0257 6.07616C30.5765 7.71327 31.1335 9.36886 31.7608 10.9963C32.0779 11.8147 32.5995 12.5921 33.1928 13.2672C34.0623 14.2697 34.9318 14.3515 36.19 13.7991C37.3766 13.2672 38.8189 11.9067 39.7497 10.444C39.1769 9.9632 38.8189 9.24716 38.8189 8.43905C38.8189 6.99674 39.9952 5.82039 41.4478 5.82039C42.8901 5.82039 44.0664 6.99674 44.0664 8.43905C44.0664 9.80976 43.0333 10.9247 41.7035 11.0475C41.3864 12.5 41.6933 13.9628 42.2047 15.354C42.6548 16.6428 43.8107 17.0622 45.2326 16.6531C47.0329 16.1416 48.557 15.2005 49.9993 14.0855C49.7436 13.6866 49.6004 13.2058 49.6004 12.6944Z" fill="#FFC658"/>
<path d="M94.8251 62V49.9534L96.3836 54.0813L83.4103 32.5153H90.6551L100.596 49.0689H96.4257L106.408 32.5153H113.106L100.132 54.0813L101.649 49.9534V62H94.8251ZM123.771 62.337C121.356 62.337 119.208 61.8315 117.327 60.8206C115.473 59.8097 113.999 58.4338 112.904 56.6928C111.837 54.9237 111.303 52.9159 111.303 50.6695C111.303 48.3949 111.837 46.3872 112.904 44.6462C113.999 42.8771 115.473 41.5011 117.327 40.5183C119.208 39.5074 121.356 39.002 123.771 39.002C126.158 39.002 128.292 39.5074 130.173 40.5183C132.055 41.5011 133.529 42.8631 134.596 44.6041C135.663 46.3451 136.197 48.3669 136.197 50.6695C136.197 52.9159 135.663 54.9237 134.596 56.6928C133.529 58.4338 132.055 59.8097 130.173 60.8206C128.292 61.8315 126.158 62.337 123.771 62.337ZM123.771 56.9455C124.866 56.9455 125.849 56.6928 126.72 56.1873C127.59 55.6819 128.278 54.9658 128.783 54.0391C129.289 53.0844 129.542 51.9612 129.542 50.6695C129.542 49.3497 129.289 48.2265 128.783 47.2998C128.278 46.3731 127.59 45.6571 126.72 45.1516C125.849 44.6462 124.866 44.3935 123.771 44.3935C122.676 44.3935 121.693 44.6462 120.823 45.1516C119.952 45.6571 119.25 46.3731 118.717 47.2998C118.211 48.2265 117.958 49.3497 117.958 50.6695C117.958 51.9612 118.211 53.0844 118.717 54.0391C119.25 54.9658 119.952 55.6819 120.823 56.1873C121.693 56.6928 122.676 56.9455 123.771 56.9455ZM150.15 62.337C148.269 62.337 146.584 61.9719 145.096 61.2418C143.636 60.5117 142.498 59.4025 141.684 57.9143C140.87 56.3979 140.462 54.4744 140.462 52.1437V39.3389H147.033V51.1749C147.033 53.0563 147.426 54.4463 148.213 55.3449C149.027 56.2154 150.164 56.6506 151.624 56.6506C152.635 56.6506 153.534 56.44 154.32 56.0188C155.106 55.5695 155.724 54.8956 156.174 53.997C156.623 53.0704 156.847 51.9191 156.847 50.5431V39.3389H163.418V62H157.184V55.7661L158.322 57.5773C157.564 59.1498 156.44 60.3432 154.952 61.1576C153.492 61.9438 151.891 62.337 150.15 62.337ZM196.008 62.5055C193.734 62.5055 191.614 62.1404 189.648 61.4103C187.711 60.6521 186.026 59.5851 184.594 58.2091C183.162 56.8332 182.038 55.2185 181.224 53.3652C180.438 51.5119 180.045 49.476 180.045 47.2577C180.045 45.0393 180.438 43.0035 181.224 41.1501C182.038 39.2968 183.162 37.6822 184.594 36.3062C186.054 34.9303 187.753 33.8773 189.69 33.1472C191.628 32.389 193.748 32.0099 196.051 32.0099C198.606 32.0099 200.909 32.4592 202.958 33.3578C205.036 34.2283 206.777 35.52 208.181 37.2329L203.801 41.2765C202.79 40.1252 201.667 39.2687 200.431 38.7071C199.196 38.1174 197.848 37.8226 196.388 37.8226C195.012 37.8226 193.748 38.0472 192.597 38.4965C191.445 38.9458 190.448 39.5917 189.606 40.4341C188.764 41.2765 188.104 42.2734 187.626 43.4247C187.177 44.576 186.952 45.8536 186.952 47.2577C186.952 48.6617 187.177 49.9394 187.626 51.0907C188.104 52.242 188.764 53.2388 189.606 54.0813C190.448 54.9237 191.445 55.5695 192.597 56.0188C193.748 56.4681 195.012 56.6928 196.388 56.6928C197.848 56.6928 199.196 56.412 200.431 55.8503C201.667 55.2607 202.79 54.3761 203.801 53.1967L208.181 57.2403C206.777 58.9533 205.036 60.259 202.958 61.1576C200.909 62.0562 198.592 62.5055 196.008 62.5055ZM226.103 62V57.5773L225.681 56.6085V48.6898C225.681 47.2858 225.246 46.1906 224.376 45.4044C223.533 44.6181 222.227 44.225 220.458 44.225C219.251 44.225 218.057 44.4215 216.878 44.8147C215.727 45.1797 214.744 45.6852 213.93 46.331L211.571 41.7398C212.806 40.8693 214.295 40.1954 216.036 39.718C217.777 39.2407 219.546 39.002 221.343 39.002C224.797 39.002 227.478 39.8163 229.388 41.445C231.297 43.0737 232.252 45.615 232.252 49.0689V62H226.103ZM219.195 62.337C217.426 62.337 215.909 62.0421 214.646 61.4524C213.382 60.8347 212.413 60.0063 211.739 58.9673C211.065 57.9283 210.728 56.763 210.728 55.4713C210.728 54.1234 211.051 52.944 211.697 51.9331C212.371 50.9222 213.424 50.1359 214.856 49.5743C216.288 48.9846 218.156 48.6898 220.458 48.6898H226.482V52.5228H221.174C219.63 52.5228 218.563 52.7755 217.973 53.281C217.412 53.7864 217.131 54.4182 217.131 55.1764C217.131 56.0188 217.454 56.6928 218.1 57.1982C218.773 57.6756 219.686 57.9143 220.837 57.9143C221.933 57.9143 222.915 57.6615 223.786 57.1561C224.656 56.6226 225.288 55.8503 225.681 54.8394L226.692 57.8721C226.215 59.3323 225.344 60.4415 224.081 61.1997C222.817 61.9579 221.188 62.337 219.195 62.337ZM251.973 39.002C253.77 39.002 255.37 39.367 256.774 40.0971C258.207 40.7991 259.33 41.8943 260.144 43.3825C260.958 44.8427 261.366 46.7241 261.366 49.0268V62H254.795V50.0377C254.795 48.2124 254.388 46.8645 253.573 45.994C252.787 45.1235 251.664 44.6883 250.204 44.6883C249.165 44.6883 248.224 44.9129 247.381 45.3622C246.567 45.7834 245.921 46.4433 245.444 47.3419C244.995 48.2405 244.77 49.3918 244.77 50.7958V62H238.199V39.3389H244.475V45.615L243.296 43.7195C244.11 42.2032 245.275 41.0378 246.792 40.2235C248.308 39.4091 250.035 39.002 251.973 39.002ZM286.79 62L277.145 32.5153H284.221L292.603 58.6303H289.065L297.826 32.5153H304.144L312.568 58.6303H309.156L317.749 32.5153H324.278L314.632 62H307.303L299.848 39.0862H301.785L294.119 62H286.79ZM327.994 62V39.3389H334.565V62H327.994ZM331.279 36.1799C330.072 36.1799 329.089 35.8289 328.331 35.1268C327.573 34.4248 327.194 33.5543 327.194 32.5153C327.194 31.4764 327.573 30.6059 328.331 29.9039C329.089 29.2018 330.072 28.8508 331.279 28.8508C332.487 28.8508 333.47 29.1878 334.228 29.8617C334.986 30.5076 335.365 31.35 335.365 32.389C335.365 33.4841 334.986 34.3967 334.228 35.1268C333.498 35.8289 332.515 36.1799 331.279 36.1799ZM354.437 39.002C356.234 39.002 357.835 39.367 359.239 40.0971C360.671 40.7991 361.794 41.8943 362.608 43.3825C363.423 44.8427 363.83 46.7241 363.83 49.0268V62H357.259V50.0377C357.259 48.2124 356.852 46.8645 356.037 45.994C355.251 45.1235 354.128 44.6883 352.668 44.6883C351.629 44.6883 350.688 44.9129 349.846 45.3622C349.031 45.7834 348.385 46.4433 347.908 47.3419C347.459 48.2405 347.234 49.3918 347.234 50.7958V62H340.663V39.3389H346.939V45.615L345.76 43.7195C346.574 42.2032 347.74 41.0378 349.256 40.2235C350.772 39.4091 352.499 39.002 354.437 39.002Z" fill="white"/>
<path d="M90.3742 86.0863V76.7151H99.0558V86.0863H97.3584V77.776L97.7651 78.2004H91.6649L92.0716 77.776V86.0863H90.3742ZM106.354 86.1924C105.411 86.1924 104.574 85.9862 103.843 85.5736C103.112 85.161 102.535 84.5952 102.11 83.8762C101.686 83.1453 101.474 82.3202 101.474 81.4007C101.474 80.4695 101.686 79.6444 102.11 78.9253C102.535 78.2063 103.112 77.6463 103.843 77.2456C104.574 76.833 105.411 76.6267 106.354 76.6267C107.285 76.6267 108.116 76.833 108.847 77.2456C109.59 77.6463 110.167 78.2063 110.58 78.9253C111.004 79.6326 111.216 80.4577 111.216 81.4007C111.216 82.332 111.004 83.1571 110.58 83.8762C110.167 84.5952 109.59 85.161 108.847 85.5736C108.116 85.9862 107.285 86.1924 106.354 86.1924ZM106.354 84.7072C106.955 84.7072 107.492 84.5716 107.963 84.3005C108.446 84.0294 108.824 83.6463 109.095 83.1512C109.366 82.6443 109.501 82.0608 109.501 81.4007C109.501 80.7288 109.366 80.1512 109.095 79.6679C108.824 79.1728 108.446 78.7897 107.963 78.5186C107.492 78.2475 106.955 78.112 106.354 78.112C105.753 78.112 105.217 78.2475 104.745 78.5186C104.274 78.7897 103.896 79.1728 103.613 79.6679C103.331 80.1512 103.189 80.7288 103.189 81.4007C103.189 82.0608 103.331 82.6443 103.613 83.1512C103.896 83.6463 104.274 84.0294 104.745 84.3005C105.217 84.5716 105.753 84.7072 106.354 84.7072ZM118 86.2278C117.222 86.2278 116.532 86.104 115.931 85.8565C115.341 85.6089 114.835 85.2435 114.41 84.7602C113.986 84.2651 113.662 83.6463 113.438 82.9037C113.226 82.1492 113.119 81.2652 113.119 80.2514C113.119 79.4499 113.19 78.7308 113.332 78.0943C113.473 77.4577 113.673 76.8919 113.933 76.3968C114.204 75.9018 114.534 75.4715 114.923 75.1061C115.324 74.7407 115.772 74.4401 116.267 74.2043C116.774 73.9568 117.328 73.7682 117.929 73.6385L122.208 72.6837L122.455 74.2574L118.512 75.1061C118.277 75.1532 117.994 75.224 117.664 75.3183C117.334 75.4126 116.998 75.5599 116.656 75.7603C116.314 75.9489 115.996 76.2141 115.701 76.556C115.406 76.8978 115.171 77.3458 114.994 77.8998C114.817 78.442 114.728 79.1139 114.728 79.9155C114.728 80.1394 114.734 80.3104 114.746 80.4282C114.758 80.5461 114.77 80.664 114.782 80.7819C114.805 80.8998 114.823 81.0766 114.835 81.3123L114.127 80.5874C114.316 79.9391 114.617 79.3732 115.029 78.8899C115.442 78.4066 115.937 78.0353 116.514 77.776C117.104 77.5049 117.746 77.3693 118.442 77.3693C119.314 77.3693 120.086 77.5579 120.758 77.9351C121.442 78.3123 121.978 78.831 122.367 79.4911C122.756 80.1512 122.95 80.9056 122.95 81.7544C122.95 82.6149 122.744 83.387 122.332 84.0706C121.931 84.7425 121.359 85.273 120.616 85.662C119.874 86.0392 119.002 86.2278 118 86.2278ZM118.159 84.8133C118.76 84.8133 119.29 84.6836 119.75 84.4243C120.21 84.1532 120.569 83.7936 120.829 83.3457C121.088 82.886 121.218 82.3732 121.218 81.8074C121.218 81.2416 121.088 80.7406 120.829 80.3045C120.569 79.8683 120.21 79.5265 119.75 79.2789C119.29 79.0196 118.748 78.8899 118.123 78.8899C117.534 78.8899 117.004 79.0137 116.532 79.2613C116.061 79.497 115.695 79.833 115.436 80.2691C115.176 80.6935 115.047 81.1885 115.047 81.7544C115.047 82.3202 115.176 82.8388 115.436 83.3103C115.707 83.7701 116.072 84.1355 116.532 84.4066C117.004 84.6777 117.546 84.8133 118.159 84.8133ZM129.548 86.1924C128.546 86.1924 127.662 85.9862 126.895 85.5736C126.141 85.161 125.552 84.5952 125.127 83.8762C124.715 83.1571 124.508 82.332 124.508 81.4007C124.508 80.4695 124.709 79.6444 125.11 78.9253C125.522 78.2063 126.082 77.6463 126.789 77.2456C127.508 76.833 128.316 76.6267 129.212 76.6267C130.119 76.6267 130.921 76.8271 131.616 77.2279C132.312 77.6287 132.854 78.1945 133.243 78.9253C133.644 79.6444 133.844 80.4872 133.844 81.4538C133.844 81.5245 133.838 81.607 133.827 81.7013C133.827 81.7956 133.821 81.884 133.809 81.9665H125.834V80.7465H132.925L132.235 81.1709C132.247 80.5697 132.123 80.0334 131.864 79.5618C131.605 79.0903 131.245 78.7249 130.785 78.4656C130.337 78.1945 129.813 78.0589 129.212 78.0589C128.622 78.0589 128.098 78.1945 127.638 78.4656C127.178 78.7249 126.819 79.0962 126.559 79.5795C126.3 80.051 126.17 80.5933 126.17 81.2062V81.4891C126.17 82.1139 126.312 82.6738 126.595 83.1689C126.889 83.6522 127.296 84.0294 127.815 84.3005C128.333 84.5716 128.929 84.7072 129.601 84.7072C130.155 84.7072 130.656 84.6129 131.104 84.4243C131.563 84.2357 131.964 83.9528 132.306 83.5756L133.243 84.6718C132.819 85.1669 132.288 85.5441 131.652 85.8034C131.027 86.0628 130.326 86.1924 129.548 86.1924ZM142.723 85.2907V78.2004H138.656L138.568 80.0039C138.544 80.5933 138.503 81.165 138.444 81.719C138.397 82.2612 138.314 82.7622 138.196 83.2219C138.09 83.6817 137.931 84.0589 137.719 84.3536C137.507 84.6482 137.224 84.831 136.87 84.9017L135.191 84.6011C135.556 84.6129 135.851 84.495 136.075 84.2475C136.299 83.9881 136.469 83.6345 136.587 83.1866C136.717 82.7386 136.811 82.2318 136.87 81.666C136.929 81.0884 136.976 80.4931 137.012 79.8801L137.153 76.7151H144.42V85.2907H142.723ZM134.819 88.2612V84.6011H145.853V88.2612H144.261V86.0863H136.428V88.2612H134.819ZM148.064 86.0863V76.7151H149.761V83.5402L155.508 76.7151H157.046V86.0863H155.349V79.2613L149.62 86.0863H148.064ZM160.341 86.0863V76.7151H162.091L166.123 83.6463H165.415L169.553 76.7151H171.144V86.0863H169.606V78.6247L169.889 78.7839L166.105 85.0255H165.362L161.561 78.6601L161.897 78.5894V86.0863H160.341ZM184.165 86.1924C183.387 86.1924 182.674 86.0156 182.026 85.662C181.389 85.2966 180.876 84.7602 180.487 84.053C180.11 83.3457 179.921 82.4616 179.921 81.4007C179.921 80.3398 180.104 79.4558 180.47 78.7485C180.847 78.0412 181.354 77.5108 181.99 77.1571C182.639 76.8035 183.363 76.6267 184.165 76.6267C185.085 76.6267 185.898 76.8271 186.605 77.2279C187.312 77.6287 187.872 78.1886 188.285 78.9076C188.697 79.6149 188.904 80.4459 188.904 81.4007C188.904 82.3555 188.697 83.1925 188.285 83.9115C187.872 84.6306 187.312 85.1905 186.605 85.5913C185.898 85.992 185.085 86.1924 184.165 86.1924ZM179.197 89.5166V76.7151H180.823V79.2436L180.717 81.4184L180.894 83.5932V89.5166H179.197ZM184.024 84.7072C184.625 84.7072 185.161 84.5716 185.633 84.3005C186.116 84.0294 186.493 83.6463 186.764 83.1512C187.047 82.6443 187.189 82.0608 187.189 81.4007C187.189 80.7288 187.047 80.1512 186.764 79.6679C186.493 79.1728 186.116 78.7897 185.633 78.5186C185.161 78.2475 184.625 78.112 184.024 78.112C183.434 78.112 182.898 78.2475 182.415 78.5186C181.943 78.7897 181.566 79.1728 181.283 79.6679C181.012 80.1512 180.876 80.7288 180.876 81.4007C180.876 82.0608 181.012 82.6443 181.283 83.1512C181.566 83.6463 181.943 84.0294 182.415 84.3005C182.898 84.5716 183.434 84.7072 184.024 84.7072ZM197.03 86.0863V84.106L196.942 83.7347V80.3575C196.942 79.6385 196.729 79.0844 196.305 78.6954C195.893 78.2947 195.268 78.0943 194.431 78.0943C193.877 78.0943 193.335 78.1886 192.804 78.3772C192.274 78.554 191.826 78.7956 191.46 79.1021L190.753 77.829C191.236 77.4401 191.814 77.1454 192.486 76.945C193.17 76.7328 193.883 76.6267 194.625 76.6267C195.91 76.6267 196.9 76.9391 197.596 77.5638C198.291 78.1886 198.639 79.1434 198.639 80.4282V86.0863H197.03ZM193.953 86.1924C193.258 86.1924 192.645 86.0746 192.115 85.8388C191.596 85.6031 191.195 85.2789 190.912 84.8663C190.629 84.442 190.488 83.9646 190.488 83.4341C190.488 82.9272 190.606 82.4675 190.842 82.0549C191.089 81.6424 191.484 81.3123 192.026 81.0648C192.58 80.8172 193.323 80.6935 194.254 80.6935H197.225V81.9135H194.325C193.476 81.9135 192.904 82.0549 192.61 82.3379C192.315 82.6208 192.168 82.9626 192.168 83.3634C192.168 83.8231 192.35 84.1944 192.716 84.4773C193.081 84.7484 193.588 84.884 194.236 84.884C194.873 84.884 195.427 84.7425 195.898 84.4596C196.382 84.1767 196.729 83.7642 196.942 83.2219L197.278 84.3889C197.054 84.9429 196.659 85.385 196.093 85.715C195.527 86.0333 194.814 86.1924 193.953 86.1924ZM208.485 86.0863L204.861 81.5245L206.258 80.6758L210.483 86.0863H208.485ZM201.696 86.0863V76.7151H203.393V86.0863H201.696ZM202.88 82.1257V80.6758H205.975V82.1257H202.88ZM206.399 81.5952L204.825 81.383L208.415 76.7151H210.236L206.399 81.5952ZM217.012 86.0863V76.7151H221.361C222.458 76.7151 223.318 76.9273 223.943 77.3516C224.579 77.7642 224.898 78.3536 224.898 79.1198C224.898 79.886 224.597 80.4813 223.996 80.9056C223.406 81.3182 222.623 81.5245 221.644 81.5245L221.909 81.0648C223.029 81.0648 223.86 81.2711 224.403 81.6836C224.945 82.0962 225.216 82.7033 225.216 83.5048C225.216 84.3182 224.909 84.9547 224.296 85.4144C223.695 85.8624 222.77 86.0863 221.52 86.0863H217.012ZM218.674 84.7779H221.397C222.104 84.7779 222.634 84.6718 222.988 84.4596C223.342 84.2357 223.518 83.882 223.518 83.3987C223.518 82.9037 223.353 82.5441 223.023 82.3202C222.705 82.0844 222.198 81.9665 221.503 81.9665H218.674V84.7779ZM218.674 80.7465H221.22C221.868 80.7465 222.357 80.6286 222.687 80.3929C223.029 80.1453 223.2 79.8035 223.2 79.3673C223.2 78.9194 223.029 78.5835 222.687 78.3595C222.357 78.1355 221.868 78.0235 221.22 78.0235H218.674V80.7465ZM227.873 86.0863V76.7151H229.623L233.655 83.6463H232.947L237.085 76.7151H238.676V86.0863H237.138V78.6247L237.421 78.7839L233.637 85.0255H232.894L229.093 78.6601L229.429 78.5894V86.0863H227.873ZM246.153 86.1924C245.151 86.1924 244.267 85.9862 243.501 85.5736C242.746 85.161 242.157 84.5952 241.732 83.8762C241.32 83.1571 241.114 82.332 241.114 81.4007C241.114 80.4695 241.314 79.6444 241.715 78.9253C242.127 78.2063 242.687 77.6463 243.395 77.2456C244.114 76.833 244.921 76.6267 245.817 76.6267C246.725 76.6267 247.526 76.8271 248.222 77.2279C248.917 77.6287 249.459 78.1945 249.848 78.9253C250.249 79.6444 250.449 80.4872 250.449 81.4538C250.449 81.5245 250.444 81.607 250.432 81.7013C250.432 81.7956 250.426 81.884 250.414 81.9665H242.44V80.7465H249.53L248.84 81.1709C248.852 80.5697 248.728 80.0334 248.469 79.5618C248.21 79.0903 247.85 78.7249 247.391 78.4656C246.943 78.1945 246.418 78.0589 245.817 78.0589C245.228 78.0589 244.703 78.1945 244.243 78.4656C243.784 78.7249 243.424 79.0962 243.165 79.5795C242.905 80.051 242.776 80.5933 242.776 81.2062V81.4891C242.776 82.1139 242.917 82.6738 243.2 83.1689C243.495 83.6522 243.901 84.0294 244.42 84.3005C244.939 84.5716 245.534 84.7072 246.206 84.7072C246.76 84.7072 247.261 84.6129 247.709 84.4243C248.169 84.2357 248.569 83.9528 248.911 83.5756L249.848 84.6718C249.424 85.1669 248.893 85.5441 248.257 85.8034C247.632 86.0628 246.931 86.1924 246.153 86.1924ZM257.167 86.1924C256.212 86.1924 255.358 85.9862 254.603 85.5736C253.861 85.161 253.277 84.5952 252.853 83.8762C252.429 83.1571 252.216 82.332 252.216 81.4007C252.216 80.4695 252.429 79.6444 252.853 78.9253C253.277 78.2063 253.861 77.6463 254.603 77.2456C255.358 76.833 256.212 76.6267 257.167 76.6267C258.016 76.6267 258.77 76.7976 259.43 77.1395C260.102 77.4695 260.621 77.9646 260.986 78.6247L259.696 79.4558C259.389 78.996 259.012 78.6601 258.564 78.4479C258.128 78.2239 257.656 78.112 257.15 78.112C256.537 78.112 255.988 78.2475 255.505 78.5186C255.022 78.7897 254.639 79.1728 254.356 79.6679C254.073 80.1512 253.931 80.7288 253.931 81.4007C253.931 82.0726 254.073 82.6561 254.356 83.1512C254.639 83.6463 255.022 84.0294 255.505 84.3005C255.988 84.5716 256.537 84.7072 257.15 84.7072C257.656 84.7072 258.128 84.6011 258.564 84.3889C259.012 84.165 259.389 83.8231 259.696 83.3634L260.986 84.1767C260.621 84.8251 260.102 85.326 259.43 85.6797C258.77 86.0215 258.016 86.1924 257.167 86.1924ZM264.92 86.0863V77.7583L265.344 78.2004H261.49V76.7151H270.047V78.2004H266.211L266.617 77.7583V86.0863H264.92ZM275.542 86.1924C274.54 86.1924 273.656 85.9862 272.889 85.5736C272.135 85.161 271.546 84.5952 271.121 83.8762C270.709 83.1571 270.502 82.332 270.502 81.4007C270.502 80.4695 270.703 79.6444 271.103 78.9253C271.516 78.2063 272.076 77.6463 272.783 77.2456C273.502 76.833 274.31 76.6267 275.206 76.6267C276.113 76.6267 276.915 76.8271 277.61 77.2279C278.306 77.6287 278.848 78.1945 279.237 78.9253C279.638 79.6444 279.838 80.4872 279.838 81.4538C279.838 81.5245 279.832 81.607 279.821 81.7013C279.821 81.7956 279.815 81.884 279.803 81.9665H271.828V80.7465H278.919L278.229 81.1709C278.241 80.5697 278.117 80.0334 277.858 79.5618C277.599 79.0903 277.239 78.7249 276.779 78.4656C276.331 78.1945 275.807 78.0589 275.206 78.0589C274.616 78.0589 274.092 78.1945 273.632 78.4656C273.172 78.7249 272.813 79.0962 272.553 79.5795C272.294 80.051 272.164 80.5933 272.164 81.2062V81.4891C272.164 82.1139 272.306 82.6738 272.589 83.1689C272.883 83.6522 273.29 84.0294 273.809 84.3005C274.327 84.5716 274.923 84.7072 275.595 84.7072C276.149 84.7072 276.65 84.6129 277.098 84.4243C277.557 84.2357 277.958 83.9528 278.3 83.5756L279.237 84.6718C278.813 85.1669 278.282 85.5441 277.646 85.8034C277.021 86.0628 276.32 86.1924 275.542 86.1924Z" fill="white"/>
</svg>
